<svg fill="none" height="581" viewBox="0 0 650 581" width="650" xmlns="http://www.w3.org/2000/svg"><path d="m649.4 53.7c-.6-20.9-12.4-33.7-22.2-40.7-11.3-8.1-26.4-13-40.4-13-2.7 0-5.2.2-7.6.5-19.3 2.8-39.6 7.9-61.9 15.4-33.6 11.4-75.5 25.4-113.7 44.1-49.7 24.3-90.7 59.9-120.8 88.2-30.7 28.9-55 63-72.3 101.5-6.1 13.7-6.9 28.9-2.3 44 4 13.1 12 25.2 21.9 33.4 25.1 20.7 55.3 24.7 81.5 25.8 2.1.1 4.3.1 6.5.1 11.1 0 22.2-1.1 32.9-2.2 1.7-.2 3.5-.4 5.2-.5.8-.1 1.6-.3 2.3-.6.2-.1.6-.2.9-.3 0 .2.1.3.1.6 1.4 15.8 1.9 32 2.3 47.7.1 3.2.2 6.4.3 9.5.1 2.6-.3 2.8-1.6 3.2-6.6 2-13 4.7-19.1 7.3-3.4 1.5-7 3-10.5 4.3-17.4 6.6-34.7 14.1-51.5 21.2-7.2 3.1-14.6 6.2-21.9 9.3-19.5 8.2-39 16.3-58.5 24.5-21.5 9-43 18-64.4 27-5.8 2.4-11.6 4.9-17.4 7.3-26.8 11.2-54.5 22.8-81.6 34.4-1.3.6-2.1.8-2.5.9-.1-.5-.2-1.4-.3-3.1-.6-16.2.9-32.7 2.3-48.6.3-3.6.7-7.3 1-10.9.4-5 1.3-11.6 4.1-17.6 6-12.9 18.5-19.3 29.6-24.9 22.9-11.6 47-21.7 70.3-31.5 6.8-2.9 13.8-5.8 20.7-8.7 17.2-7.3 19-10.5 16.8-28.7-1.3-10.5-2.5-21.2-3.7-31.6-1.5-13.5-3.1-27.4-4.9-41.1-2.2-17-4.3-34.4-6.4-51.2-4.8-39.7-9.8-80.8-16.9-121-.6-3.4 0-4.3 3.7-5.3 12.3-3.3 24.8-7.1 35.4-10.3 6.1-1.8 12.3-3.7 18.3-5.4 15.8-4.6 32.1-9.4 47.9-15 21.4-7.5 44-14.9 71.1-23.4 10.4-3.3 20.9-6.7 31.1-10 7-2.3 14.2-4.6 21.4-6.9 7.9-2.5 9.9-8 10.1-12.1.2-3.7-.8-6.9-3-9.2-2.4-2.6-6-3.9-10.2-3.9-1.3 0-2.7.1-4.1.4-10.5 1.9-20.6 5.3-30.3 8.6-4.2 1.4-8.6 2.9-13 4.3-13.8 4.2-27.7 8.8-41.1 13.2-9.2 3-18.8 6.2-28.2 9.2-5.8 1.9-11.6 3.7-17.4 5.6-15.4 4.9-31.3 10.1-47 14.7-5.3 1.6-10.7 3.2-16 4.8-13.7 4.2-27.8 8.5-41.9 12.1-8.1 2.1-13 4-15.6 8-2.7 4.1-2.5 9.5-1.2 17.6.2 1.5.5 2.9.7 4.4.4 2.1.7 4.3 1.1 6.5 6.1 41.3 10.4 72.8 13.8 102.3 3 26 6.2 52.5 9.3 78.1 1.7 13.8 3.4 28.1 5.1 42.2.2 1.7.6 3.6 1 5.3.7 3.3 1.6 7.4.6 9-1.3 2.1-5.1 3.4-8.8 4.6-1.8.6-3.7 1.3-5.4 2-8.7 3.9-17.6 7.7-26.2 11.3-21.1 8.9-42.9 18.2-63.4 29.8-11.1 6.3-19.6 13.2-25.9 21.1-7.2 9-11.49996 19.6-12.79996 31.4l-.4 3.7c-2 17.4-4.100002 35.4-4.000002 54.2-.5000002 10.2.600002 21.3 1.600002 29.7 1.4 12.2 9.79996 20.3 20.69996 20.3 3.9 0 7.9-1 11.8-3 2.1-1.1 4.3-1.9 6.7-2.7 2-.7 4.1-1.5 6.2-2.4 18.3-8.4 37.3-16.2 55.7-23.7 6.2-2.5 12.6-5.1 18.9-7.7 16.7-6.9 33.5-14.1 49.8-21 11.4-4.9 23.3-9.9 34.9-14.8 19.4-8.1 39.1-16.3 58.2-24.2 9.8-4.1 19.6-8.1 29.5-12.2l26.7-11.1c18.6-7.8 37.9-15.8 56.8-23.6 11.2-4.6 13.4-7.8 13.9-20.1.6-13.6-.1-27.4-.7-40.7-.4-8.6-.9-17.4-.9-26.1 0-2.6.2-2.7 2.3-3.1 15.3-3.3 27.8-6.8 39.4-11.1 17-6.3 39.1-15.4 58.5-29.9 17.4-13 30.5-31.6 41.2-58.6 3.6-9.1 8.7-14.6 17.1-18.4 26.7-12.3 46.3-27.5 60-46.7 12.5-17.5 14.7-43.7-5.4-60-.1-.1-.1-.1-.2-.2.2-.1.3-.2.5-.3s.5-.3.7-.4c10.4-6.8 19-13.9 26.1-21.7 13.3-14.7 19.4-28.4 19-43.2zm-94.8 62c-42.2 21.7-86.3 41.1-129 60-17.5 7.7-35.6 15.7-53.3 23.8-5.5 2.5-10.9 5-16.1 7.5-6.5 3.1-8.9 8.4-6.8 14.9 1.7 5.3 5.8 8 12.1 8 .5 0 1 0 1.5-.1 4.7-.3 8.6-2.3 12.4-4.3.8-.4 1.6-.8 2.5-1.2 20-9.7 40.7-18.6 60.8-27.1 17.3-7.4 35.2-15 52.6-23.2 6.1-2.9 12.4-5.8 18.5-8.6 19-8.8 38.6-17.9 57.4-27.8 2-1 4.4-1.6 7.1-1.6 4.4 0 8.7 1.4 11.4 3.8 4.5 3.9 5.5 9.1 3.1 16.5-4.8 14.6-17.1 23.6-27.9 31.5-21 15.4-45.4 25-69 34.3-2.9 1.1-5.8 2.3-8.7 3.4-29.3 11.7-59.2 23.2-88.2 34.3l-.6.2c-10.1 3.9-20.1 7.7-30.2 11.6-5.4 2.1-8.9 4.5-10.6 7.3-2.2 3.6-1 7.1-.6 8.2 2 6 6.4 9.3 12.2 9.3 2.5 0 5.2-.6 8.1-1.7 27-10.3 54.2-20.9 80.5-31.1l1.7-.7c7-2.7 13.9-5.4 20.9-8.1 5.6-2.2 11.1-4.3 16.9-6.6l.5-.2c1.9-.7 3.8-1.5 5.7-2.2-5.5 13.7-13.8 25-25.3 34.7-9.8 8.2-22.1 15.3-38.8 22.4-29 12.3-61.2 19.6-98.4 22.5-8.8.7-16.1 1-22.9 1-16.1 0-29.4-1.8-41.8-5.6-12.1-3.7-21.5-9.1-28-16.1-7-7.5-10.9-17.2-11.5-28.8-.5-9.3 3.8-17.8 7.3-24.6 18.9-36.9 43.4-68.6 72.9-94.3 28-23.9 55.4-47 87-64.6 31.3-17.5 65.4-29.9 98.4-41.8l2.5-.9c27.6-10 53.9-17.6 80.5-23 2.2-.4 4.4-.7 6.7-.7 8 0 16.2 2.9 22.5 7.9 6.4 5.2 10.1 11.9 10.3 19 .4 12-6.6 20.9-14.1 28.8-13.8 14.4-31.7 23.6-48.9 32.4z" fill="#1d1d1b"/></svg>