<svg fill="none" height="647" viewBox="0 0 497 647" width="497" xmlns="http://www.w3.org/2000/svg"><g fill="#0c0d15"><path d="m325.353 300.816c-12.26-8.743-26.026-12.863-41.2-10.049-3.919-26.632-26.931-41.404-47.631-41.002-10.149.201-12.762-2.613-13.365-12.763-.704-11.456.904-22.611 3.316-33.766 7.838-35.475 19.093-70.246 20.299-107.027.502-14.2703-.402-28.1385-6.532-41.1023-11.858-25.2242-37.08-30.048-57.68-11.4565-9.848 8.9441-17.083 19.496-22.107 31.8568-6.331 15.5767-10.351 31.756-14.37 47.936-8.944 36.982-20.198 73.462-25.826 111.147-1.004 6.834-2.21 13.868-8.441 20.199-4.823-20.601-9.847-40.298-12.5606-60.397-6.7326-48.639-11.1541-97.4796-12.8624-146.6214-.4019-10.0495-1.9093-19.898-7.1346-28.842-8.7425-14.67222-24.6195-22.30984-38.8888-17.48609-18.2888 6.13017-31.05073 17.98859-35.77366 37.28349-3.01463 12.3609-4.421459 24.9227-4.521947 37.6855-.401951 40.1975.904395 80.2955 2.210737 120.4935.60293 16.38 1.10536 32.761 2.21073 49.041 2.4117 33.264 5.02439 66.527 8.03904 99.791 2.0097 22.611 2.4117 45.323 3.6175 68.035.402 7.336-.7034 14.572-.4019 22.008.7034 17.185 4.6224 33.666 7.838 50.348 5.9288 30.55 10.4508 61.101 10.8527 92.355.3015 19.094 1.3064 38.087 1.8088 57.181.1005 3.919.9044 7.236 4.5219 9.447 3.7181 2.211 7.5366 2.612 11.4557.502 4.12-2.211 5.0243-5.929 4.9239-10.15-.8039-21.104-1.1054-42.107-1.7083-63.211-.8039-31.254-5.6274-61.804-11.6566-92.254-4.12-21.003-7.6371-41.906-6.8332-63.513.8039-20.099-.5024-40.097-2.2107-60.095-3.2156-38.892-7.0342-77.783-9.5464-116.675-1.8087-28.741-2.5122-57.483-2.7131-86.325-.3015-30.449-3.6176-60.7988-.201-91.2487 1.2058-10.351 2.0097-20.8024 7.838-29.6459 4.9239-7.3361 11.9581-14.3707 21.002-12.6623 9.5463 1.8089 12.36 11.4563 13.2644 20.4004.7034 6.3311.3014 12.7628.8039 19.0939 2.5122 32.2588 4.2205 64.6176 7.9385 96.7766 2.0098 17.184 3.5171 34.469 7.0342 51.453 4.4214 21.204 8.6419 42.509 13.2643 63.714 1.0049 4.522 3.1152 8.843 4.723 13.164 2.0099 5.427 6.2299 7.939 11.6569 7.939 5.024 0 8.742-2.713 11.053-7.336 4.522-8.944 9.245-17.787 13.868-26.731.904-1.809 1.507-3.718 1.909-5.728 9.245-43.414 20.499-86.426 31.453-129.437 3.617-14.271 7.034-28.541 12.862-42.1077 4.421-10.351 10.25-19.5965 19.495-26.2291 8.642-6.2307 11.757-4.4218 17.585 2.8138 5.024 6.2307 6.532 13.8683 7.034 21.5059 1.307 19.7974-.804 39.3941-4.924 58.6891-4.924 22.812-11.154 45.423-15.877 68.236-3.617 17.586-6.331 35.575 3.919 51.453-22.81 23.114-32.558 49.946-26.83 80.898 2.11 11.255 1.909 19.797-7.336 26.933-.703.602-1.507 1.004-2.512 1.507-1.909-1.608-3.718-3.115-5.426-4.623-15.274-13.667-31.955-25.425-50.546-34.068-6.632-3.115-13.264-6.431-20.7-7.436-5.2254-.804-9.7473 2.01-11.0537 6.532-1.3063 4.623 1.0049 7.939 4.522 10.15 3.1151 1.909 6.7326 3.015 10.1492 4.321 23.3135 9.246 42.9085 23.717 60.4935 41.203-2.612 3.517-5.426 5.829-8.34 8.14-14.471 11.356-29.142 19.094-47.33 6.934-6.0293-4.02-12.0586-1.909-14.8722 3.116-2.7132 4.823-1.3064 8.743 5.3258 13.164 15.2744 10.15 31.3524 12.261 48.4354 4.925 16.781-7.135 30.046-18.491 41.2-32.661 5.426-6.834 10.35-13.969 17.083-19.697 15.274-12.964 34.668-8.944 43.41 9.044 1.407 3.015 2.613 6.231 3.316 9.447 5.929 26.732-2.21 50.147-19.595 69.643-29.041 32.46-67.728 40.499-109.33 38.69-3.015-.1-5.829-.904-8.843.101-3.718 1.306-6.532 3.316-6.833 7.637-.302 4.221 1.708 6.934 5.225 8.944 3.316 1.809 7.034 2.211 10.652 2.412 34.869 1.809 67.829-4.321 98.176-22.31 2.512-1.507 4.522-3.919 8.24-3.818 1.809 8.542-.804 16.481-2.914 24.42-4.924 18.29-13.566 34.771-25.323 49.644-4.321 5.427-4.019 9.447 0 13.366 4.02 3.819 9.948 4.02 14.671.301 1.307-1.005 2.513-2.311 3.517-3.617 20.801-26.631 33.061-56.478 32.257-90.647-.201-9.547-.301-18.39 7.034-25.626 2.713-2.713 2.814-7.738 7.336-9.044 5.125-1.508 8.039-5.728 11.455-9.447 13.265-14.571 26.63-29.244 41.401-42.308 1.508-1.306 2.513-4.321 5.829-2.814v25.928c-.101 32.359-5.025 63.814-15.576 94.364-8.039 23.315-16.48 46.529-21.705 70.748-2.513 11.457-4.723 22.913-5.527 34.571-.503 6.934 3.115 11.155 9.345 12.059 6.029.904 10.049-2.412 11.355-9.547 1.005-5.929 1.608-11.858 2.613-17.787 4.12-24.421 11.456-48.037 19.997-71.251 11.757-31.857 19.394-64.719 20.6-98.585.804-23.014 2.512-46.027 2.211-69.141-.101-5.427.502-10.652 1.005-15.978 2.11-18.592-3.618-34.37-19.093-45.424zm-85.113 39.896c-1.507 2.412-2.713 3.216-5.527 2.211-8.742-3.015-17.686-3.818-26.529-1.005-4.421 1.307-5.426-1.407-5.929-4.421-.703-4.623-.904-9.346-1.306-13.266.704-16.481 5.426-30.952 14.47-43.815 10.049-14.371 31.855-15.376 42.306-1.407 5.426 7.235 6.833 24.42 1.808 32.459-6.33 9.748-13.063 19.295-19.293 29.244zm80.591 12.562c-3.015 6.432-7.034 12.16-11.858 17.185-11.958 12.461-25.423 23.516-38.687 38.389 1.105-19.396-1.608-35.575-12.461-49.444-2.412-3.115-1.507-5.225.302-7.939 6.833-10.25 13.264-20.802 20.399-30.852 11.254-15.878 31.854-14.37 41.3 2.915 5.125 9.647 5.828 19.596 1.005 29.746z"/><path d="m455.064 145.316c-21.062.417-43.527 19.379-42.771 36.674.972 22.191 16.417 43.028 43.635 44.383 21.278 1.042 40.936-18.337 40.828-38.862-.216-22.504-20.09-42.612-41.692-42.195zm2.593 60.949c-8.641 1.146-18.578-6.356-20.954-15.941-2.917-11.773 6.156-24.171 18.469-25.421 3.889-.417 7.021 1.354 9.721 3.751 5.401 4.896 8.641 10.939 8.641 19.482 0 8.439-6.912 16.879-15.877 18.129z"/></g></svg>