<svg style="position: absolute; width: 0; height: 0; overflow: hidden;" version="1.1" xmlns="http://www.w3.org/2000/svg" xmlns:xlink="http://www.w3.org/1999/xlink">
<defs>
<symbol id="icon-arrow" viewBox="0 0 40 40">
<title>arrow</title>
<path d="M20 40c11.046 0 20-8.954 20-20S31.046 0 20 0 0 8.954 0 20s8.954 20 20 20zm3.707-27.707l7 7a.999.999 0 010 1.414l-7 7a1 1 0 11-1.414-1.414L27.586 21H10a1 1 0 110-2h17.586l-5.293-5.293a1 1 0 111.414-1.414z"></path>
</symbol>
<symbol id="icon-twitter" viewBox="0 0 40 40">
<title>twitter</title>
<path d="m18 3.75002c-.675.3-1.35.525-2.1.6.75-.45 1.35-1.2 1.65-2.025-.75.45-1.5.75-2.325.9-.675-.75-1.65-1.2-2.7-1.2-2.025 0-3.675 1.65-3.675 3.675 0 .3 0 .6.075.825-3.15-.15-5.85-1.65-7.65-3.9-.375.6-.525 1.2-.525 1.875 0 1.275.675 2.4 1.65 3.075-.6 0-1.2-.15-1.65-.45v.075c0 1.8 1.275 3.29998 2.925 3.59998-.3.075-.6.15-.975.15-.225 0-.45 0-.675-.075.45 1.5 1.8 2.55 3.45 2.55-1.275.975-2.85 1.575-4.575 1.575-.3 0-.6 0-.9-.075 1.65 1.05 3.6 1.65 5.625 1.65 6.825 0 10.5-5.625 10.5-10.49998 0-.15 0-.3 0-.45.75-.525 1.35-1.2 1.875-1.875z"/>
</symbol>
<symbol id="icon-dribbble" viewBox="0 0 40 40">
<title>dribbble</title>
<path d="m9 18.3c-4.95 0-9-4.05-9-8.99995 0-4.95 4.05-9.000001 9-9.000001s9 4.050001 9 9.000001c0 4.94995-4.05 8.99995-9 8.99995zm7.575-7.8c-.3-.075-2.4-.74995-4.8-.3.975 2.775 1.425 5.025 1.5 5.475 1.725-1.125 3-3 3.3-5.175zm-4.575 5.925c-.15-.675-.525-3-1.65-5.85 0 0 0 0-.075 0-4.35 1.5-5.925 4.5-6 4.8 1.275 1.05 2.925 1.65 4.725 1.65 1.05 0 2.1-.225 3-.6zm-8.7-1.95c.15-.3 2.25-3.825 6.225-5.09995.075 0 .225-.075.3-.075-.225-.45-.375-.9-.6-1.275-3.825 1.125-7.575 1.125-7.875 1.125v.225c0 1.87495.675 3.74995 1.95 5.09995zm-1.8-6.74995c.375 0 3.525 0 7.125-.9-1.275-2.25-2.625-4.2-2.85-4.425-2.175.975-3.825 2.925-4.275 5.325zm5.7-5.85c.225.3 1.575 2.175 2.85 4.5 2.7-1.05 3.9-2.55 4.05-2.775-1.35-1.275-3.15-1.95-5.1-1.95-.6 0-1.2.075-1.8.225zm7.725 2.55c-.15.225-1.425 1.875-4.275 3 .15.375.375.75.525 1.125.075.15.075.3.15.375 2.55-.3 5.1.225 5.325.225 0-1.725-.6-3.375-1.725-4.725z"/>
</symbol>
<symbol id="icon-instagram" viewBox="0 0 40 40">
<title>instagram</title>
<path d="m9 1.92155c2.403 0 2.688.009 3.6368.0525 1.0245.0465 1.9747.252 2.706.98325.7312.73125.9367 1.6815.9832 2.706.0435.94875.0525 1.23375.0525 3.63675 0 2.40295-.009 2.68795-.0525 3.63675-.0465 1.0245-.252 1.9747-.9832 2.706-.7313.7312-1.6815.9367-2.706.9832-.9488.0435-1.2338.0525-3.6368.0525s-2.688-.009-3.63675-.0525c-1.0245-.0465-1.97475-.252-2.706-.9832-.73125-.7313-.93675-1.6815-.98325-2.706-.0435-.9488-.0525-1.2338-.0525-3.63675 0-2.403.009-2.688.0525-3.63675.0465-1.0245.252-1.97475.98325-2.706s1.6815-.93675 2.706-.98325c.94875-.0435 1.23375-.0525 3.63675-.0525zm0-1.621501c-2.44425 0-2.751.0105-3.711.054-1.4625.06675-2.74725.42525-3.7785 1.456501-1.03125 1.03125-1.38975 2.316-1.4565 3.7785-.0435.96-.054 1.26675-.054 3.711s.0105 2.75095.054 3.71095c.06675 1.4625.42525 2.7473 1.4565 3.7785 1.03125 1.0313 2.316 1.3898 3.7785 1.4565.96.0435 1.26675.054 3.711.054 2.4443 0 2.751-.0105 3.711-.054 1.4625-.0667 2.7473-.4252 3.7785-1.4565 1.0313-1.0312 1.3897-2.316 1.4565-3.7785.0435-.96.054-1.2667.054-3.71095s-.0105-2.751-.054-3.711c-.0668-1.4625-.4252-2.74725-1.4565-3.7785-1.0312-1.031251-2.316-1.389751-3.7785-1.456501-.96-.0435-1.2667-.054-3.711-.054z"/><path d="m8.99998 4.67859c-2.55225 0-4.6215 2.06925-4.6215 4.6215 0 2.55221 2.06925 4.62151 4.6215 4.62151 2.55222 0 4.62152-2.0693 4.62152-4.62151 0-2.55225-2.0693-4.6215-4.62152-4.6215zm0 7.62151c-1.65675 0-3-1.3433-3-3.00001 0-1.65675 1.34325-3 3-3 1.65672 0 3.00002 1.34325 3.00002 3 0 1.65671-1.3433 3.00001-3.00002 3.00001z"/><path d="m13.8045 5.57553c.5965 0 1.08-.48354 1.08-1.08 0-.59647-.4835-1.08-1.08-1.08s-1.08.48353-1.08 1.08c0 .59646.4835 1.08 1.08 1.08z"/>
</symbol>
<symbol id="icon-facebook" viewBox="0 0 40 40">
<title>facebook</title>
<path d="m6.77365 17.55-.02365-7.5h-3v-2.99995h3v-1.875c0-2.78355 1.72374-4.125 4.2069-4.125 1.1894 0 2.2117.08855 2.5096.12814v2.90897l-1.7222.00078c-1.3505 0-1.6119.64171-1.6119 1.58339v1.37872h3.9301l-1.5 2.99995h-2.4301v7.5z" />
</symbol>
<symbol id="icon-linkedin" viewBox="0 0 40 40">
<title>linkedin</title>
<path d="m17.25.300049h-16.5c-.45 0-.75.3-.75.750001v16.49995c0 .45.3.75.75.75h16.5c.45 0 .75-.3.75-.75v-16.49995c0-.450001-.3-.750001-.75-.750001zm-11.925 15.374951h-2.625v-8.62495h2.7v8.62495zm-1.35-9.82495c-.825 0-1.575-.675-1.575-1.575 0-.825.675-1.575 1.575-1.575.825 0 1.575.675 1.575 1.575s-.675 1.575-1.575 1.575zm11.4 9.82495h-2.7v-4.2c0-.975 0-2.24995-1.35-2.24995-1.425 0-1.575 1.04995-1.575 2.17495v4.275h-2.7v-8.62495h2.55v1.2c.375-.675 1.2-1.35 2.55-1.35 2.7 0 3.225 1.8 3.225 4.12495z"/>
</symbol>
</defs>
</svg>

